<svg width="490" height="74" fill="none" xmlns="http://www.w3.org/2000/svg"><path fill="#282828" d="M0 0h490v74H0z"/><path d="M61.41 26.008c2.423 0 4.391.48 5.903 1.44 1.536.96 2.304 2.292 2.304 3.996 0 1.008-.264 1.908-.792 2.7-.528.768-1.212 1.452-2.052 2.052a13.49 13.49 0 01-2.736 1.44c-.96.384-1.896.672-2.808.864 1.152.024 2.304.168 3.456.432 1.152.264 2.196.672 3.132 1.224.96.552 1.728 1.248 2.304 2.088.576.816.864 1.788.864 2.916 0 1.176-.324 2.232-.972 3.168-.624.912-1.476 1.68-2.556 2.304-1.056.6-2.256 1.056-3.6 1.368a17.005 17.005 0 01-4.14.504c-1.224 0-2.412-.132-3.564-.396-1.128-.264-2.1-.696-2.916-1.296a6.49 6.49 0 01-1.404-1.404 3.367 3.367 0 01-.576-1.908c0-.912.3-1.632.9-2.16.6-.528 1.32-.792 2.16-.792.84 0 1.524.24 2.052.72s.792 1.2.792 2.16c0 .744-.252 1.38-.756 1.908-.48.528-1.152.9-2.016 1.116.456.36 1.092.66 1.908.9.816.24 1.764.36 2.844.36 1.992 0 3.54-.552 4.644-1.656 1.128-1.128 1.692-2.736 1.692-4.824a9.307 9.307 0 00-.504-3.096c-.336-.96-.864-1.74-1.584-2.34-.72-.6-1.632-.924-2.736-.972a7.16 7.16 0 01-.756.324c-.24.096-.504.144-.792.144a1.07 1.07 0 01-.54-.144c-.144-.096-.216-.252-.216-.468 0-.384.276-.576.828-.576.24 0 .492.024.756.072.264.048.516.096.756.144.888-.36 1.572-.852 2.052-1.476a5.635 5.635 0 001.044-2.196c.192-.816.288-1.668.288-2.556 0-1.776-.348-3.06-1.044-3.852-.672-.792-1.656-1.188-2.952-1.188-1.368 0-2.496.36-3.384 1.08-.888.696-1.572 1.632-2.052 2.808-.456 1.152-.732 2.424-.828 3.816h-.828c0-1.512-.012-2.784-.036-3.816 0-1.032-.012-1.908-.036-2.628 0-.72-.024-1.356-.072-1.908h.828c.072.648.168 1.14.288 1.476.12.312.324.468.612.468.192 0 .48-.132.864-.396a25.832 25.832 0 011.512-.936c.504-.312 1.104-.552 1.8-.72.72-.192 1.608-.288 2.664-.288zm16.22 26.244c-1.608 0-2.772-.42-3.492-1.26-.72-.84-1.08-1.86-1.08-3.06 0-1.032.228-1.872.684-2.52a5.6 5.6 0 011.836-1.584 12.01 12.01 0 012.34-1.044c.84-.288 1.632-.564 2.376-.828.768-.288 1.38-.612 1.836-.972.48-.36.72-.816.72-1.368v-2.808c0-.624-.108-1.176-.324-1.656A2.238 2.238 0 0081.59 34c-.408-.264-.948-.396-1.62-.396-.48 0-.96.072-1.44.216-.48.12-.876.336-1.188.648.672.24 1.188.612 1.548 1.116.384.48.576 1.032.576 1.656 0 .816-.288 1.464-.864 1.944-.552.48-1.212.72-1.98.72-.864 0-1.524-.264-1.98-.792-.432-.552-.648-1.212-.648-1.98 0-.696.168-1.272.504-1.728.36-.456.852-.888 1.476-1.296.672-.384 1.476-.684 2.412-.9.96-.216 1.992-.324 3.096-.324s2.1.12 2.988.36c.888.216 1.632.624 2.232 1.224.552.552.912 1.236 1.08 2.052.168.792.252 1.8.252 3.024v9.792c0 .576.06.984.18 1.224s.324.36.612.36c.24 0 .468-.06.684-.18.216-.12.42-.264.612-.432l.36.612a5.547 5.547 0 01-1.764 1.008c-.648.216-1.38.324-2.196.324-1.44 0-2.4-.288-2.88-.864a3.49 3.49 0 01-.72-2.052c-.6.984-1.344 1.716-2.232 2.196-.864.48-1.884.72-3.06.72zm2.772-2.304c.456 0 .876-.108 1.26-.324.408-.216.804-.6 1.188-1.152v-7.38c-.288.48-.696.888-1.224 1.224-.504.312-1.032.66-1.584 1.044-.528.36-.972.828-1.332 1.404-.36.576-.54 1.344-.54 2.304 0 1.032.216 1.776.648 2.232.432.432.96.648 1.584.648zm32.312-16.524v.756c-.84 0-1.44.18-1.8.54-.336.36-.504 1.044-.504 2.052v11.88c0 1.008.168 1.692.504 2.052.36.36.96.54 1.8.54V52a85.453 85.453 0 00-2.052-.072 51.37 51.37 0 00-5.4 0c-.864.024-1.524.048-1.98.072v-.756c.72 0 1.224-.18 1.512-.54.288-.36.432-1.044.432-2.052v-11.88c0-1.008-.144-1.692-.432-2.052-.288-.36-.792-.54-1.512-.54h-2.34c-.696 0-1.2.18-1.511.54-.288.36-.432 1.044-.432 2.052v11.88c0 1.008.144 1.692.431 2.052.313.36.816.54 1.512.54V52a76.901 76.901 0 00-1.907-.072 43.572 43.572 0 00-2.556-.072c-.912 0-1.849.024-2.808.072-.96.024-1.68.048-2.16.072v-.756c.84 0 1.428-.18 1.764-.54.36-.36.54-1.044.54-2.052v-11.88c0-1.008-.18-1.692-.54-2.052-.337-.36-.925-.54-1.765-.54v-.756l2.052.108c.937.024 1.837.036 2.7.036.936 0 1.849-.024 2.737-.072a59.469 59.469 0 013.095-.072c1.176 0 2.16.024 2.952.072.816.048 1.716.072 2.7.072.936 0 1.872-.012 2.808-.036l2.16-.108zm23.57 0v.756c-.84 0-1.44.18-1.8.54-.336.36-.504 1.044-.504 2.052v11.88c0 1.008.168 1.692.504 2.052.36.36.96.54 1.8.54V52a85.352 85.352 0 00-2.088-.072 50.708 50.708 0 00-5.364 0c-.864.024-1.524.048-1.98.072v-.756c.72 0 1.224-.18 1.512-.54.288-.36.432-1.044.432-2.052v-11.88c0-1.008-.144-1.692-.432-2.052-.288-.36-.792-.54-1.512-.54v-.756l1.908.108c.84.024 1.692.036 2.556.036.936 0 1.872-.012 2.808-.036l2.16-.108zm-12.42 0v.756c-.696 0-1.2.18-1.512.54-.288.36-.432 1.044-.432 2.052v11.88c0 1.008.144 1.692.432 2.052.312.36.816.54 1.512.54V52a76.963 76.963 0 00-1.908-.072 43.572 43.572 0 00-2.556-.072c-.912 0-1.848.024-2.808.072-.96.024-1.68.048-2.16.072v-.756c.84 0 1.428-.18 1.764-.54.36-.36.54-1.044.54-2.052v-11.88c0-1.008-.18-1.692-.54-2.052-.336-.36-.924-.54-1.764-.54v-.756l2.052.108c.936.024 1.836.036 2.7.036.936 0 1.836-.012 2.7-.036l1.98-.108zm5.364 2.196l.612.36-8.568 14.508-.612-.36 8.568-14.508zm18.154-2.736c.936 0 1.788.108 2.556.324.792.192 1.44.444 1.944.756.624.384 1.104.864 1.44 1.44.36.552.54 1.2.54 1.944 0 .84-.264 1.536-.792 2.088-.528.528-1.212.792-2.052.792-.84 0-1.512-.24-2.016-.72s-.756-1.128-.756-1.944c0-.768.24-1.404.72-1.908.48-.528 1.032-.876 1.656-1.044-.192-.24-.48-.444-.864-.612a3.201 3.201 0 00-1.296-.252c-.744 0-1.404.216-1.98.648-.552.432-1.02 1.032-1.404 1.8-.384.768-.684 1.668-.9 2.7a18.532 18.532 0 00-.288 3.384c0 1.848.228 3.3.684 4.356.48 1.056 1.08 1.8 1.8 2.232.744.432 1.512.648 2.304.648.672 0 1.44-.18 2.304-.54.864-.384 1.668-1.176 2.412-2.376l.612.216c-.264.888-.696 1.776-1.296 2.664-.6.888-1.38 1.62-2.34 2.196-.96.552-2.136.828-3.528.828-1.56 0-2.976-.336-4.248-1.008-1.248-.696-2.256-1.752-3.024-3.168-.744-1.44-1.116-3.288-1.116-5.544 0-2.16.384-3.972 1.152-5.436.792-1.488 1.86-2.604 3.204-3.348 1.344-.744 2.868-1.116 4.572-1.116zm18.22.54v.756c-.84 0-1.44.18-1.8.54-.336.36-.504 1.044-.504 2.052v12.636c0 .72.132 1.212.396 1.476.264.24.756.36 1.476.36 1.056 0 1.86-.216 2.412-.648a3.276 3.276 0 001.188-1.692 7.85 7.85 0 00.324-2.268c0-1.68-.396-2.892-1.188-3.636-.768-.744-2.1-1.116-3.996-1.116-.456 0-.936.012-1.44.036-.504.024-.948.036-1.332.036l-.072-.72c1.008 0 1.932-.012 2.772-.036a86.104 86.104 0 012.376-.036c2.904 0 4.992.492 6.264 1.476 1.296.984 1.944 2.208 1.944 3.672 0 .888-.288 1.776-.864 2.664-.552.864-1.476 1.584-2.772 2.16-1.272.576-3 .864-5.184.864-.72 0-1.476-.024-2.268-.072a43.725 43.725 0 00-2.628-.072c-.84 0-1.728.024-2.664.072-.912.024-1.584.048-2.016.072v-.756c.768 0 1.308-.18 1.62-.54.312-.36.468-1.044.468-2.052v-11.88c0-1.008-.144-1.692-.432-2.052-.288-.36-.792-.54-1.512-.54v-.756l1.872.108c.84.024 1.704.036 2.592.036.912 0 1.848-.012 2.808-.036l2.16-.108zm39.925 0v.756c-.84 0-1.44.18-1.8.54-.336.36-.504 1.044-.504 2.052v11.88c0 1.008.168 1.692.504 2.052.36.36.96.54 1.8.54V52a85.352 85.352 0 00-2.088-.072 50.708 50.708 0 00-5.364 0c-.864.024-1.524.048-1.98.072v-.756c.72 0 1.224-.18 1.512-.54.288-.36.432-1.044.432-2.052v-11.88c0-1.008-.144-1.692-.432-2.052-.288-.36-.792-.54-1.512-.54v-.756l1.908.108c.84.024 1.692.036 2.556.036.936 0 1.872-.012 2.808-.036l2.16-.108zm-11.772 0v.756c-.696 0-1.2.18-1.512.54-.288.36-.432 1.044-.432 2.052v11.88c0 1.008.144 1.692.432 2.052.312.36.816.54 1.512.54V52a76.963 76.963 0 00-1.908-.072 43.572 43.572 0 00-2.556-.072c-.912 0-1.848.024-2.808.072-.96.024-1.68.048-2.16.072v-.756c.84 0 1.428-.18 1.764-.54.36-.36.54-1.044.54-2.052v-11.88c0-1.008-.18-1.692-.54-2.052-.336-.36-.924-.54-1.764-.54v-.756l2.052.108c.936.024 1.836.036 2.7.036.936 0 1.836-.012 2.7-.036l1.98-.108zm6.156 8.64v.72h-10.152v-.72h10.152zm12.086 10.188c-1.608 0-2.772-.42-3.492-1.26-.72-.84-1.08-1.86-1.08-3.06 0-1.032.228-1.872.684-2.52a5.6 5.6 0 011.836-1.584 12.01 12.01 0 012.34-1.044c.84-.288 1.632-.564 2.376-.828.768-.288 1.38-.612 1.836-.972.48-.36.72-.816.72-1.368v-2.808c0-.624-.108-1.176-.324-1.656a2.238 2.238 0 00-.936-1.152c-.408-.264-.948-.396-1.62-.396-.48 0-.96.072-1.44.216-.48.12-.876.336-1.188.648.672.24 1.188.612 1.548 1.116.384.48.576 1.032.576 1.656 0 .816-.288 1.464-.864 1.944-.552.48-1.212.72-1.98.72-.864 0-1.524-.264-1.98-.792-.432-.552-.648-1.212-.648-1.98 0-.696.168-1.272.504-1.728.36-.456.852-.888 1.476-1.296.672-.384 1.476-.684 2.412-.9.96-.216 1.992-.324 3.096-.324s2.1.12 2.988.36c.888.216 1.632.624 2.232 1.224.552.552.912 1.236 1.08 2.052.168.792.252 1.8.252 3.024v9.792c0 .576.06.984.18 1.224s.324.36.612.36c.24 0 .468-.06.684-.18.216-.12.42-.264.612-.432l.36.612a5.547 5.547 0 01-1.764 1.008c-.648.216-1.38.324-2.196.324-1.44 0-2.4-.288-2.88-.864a3.49 3.49 0 01-.72-2.052c-.6.984-1.344 1.716-2.232 2.196-.864.48-1.884.72-3.06.72zm2.772-2.304c.456 0 .876-.108 1.26-.324.408-.216.804-.6 1.188-1.152v-7.38c-.288.48-.696.888-1.224 1.224-.504.312-1.032.66-1.584 1.044-.528.36-.972.828-1.332 1.404-.36.576-.54 1.344-.54 2.304 0 1.032.216 1.776.648 2.232.432.432.96.648 1.584.648zm36.935-16.524v.756c-.768 0-1.308.18-1.62.54-.312.336-.468 1.008-.468 2.016v11.916c0 1.008.204 1.692.612 2.052.432.36 1.2.54 2.304.54-.096.84-.168 1.644-.216 2.412a60.864 60.864 0 00-.036 1.764c0 .936.036 1.68.108 2.232h-.828c-.216-1.416-.516-2.544-.9-3.384-.384-.84-.912-1.44-1.584-1.8-.648-.36-1.5-.54-2.556-.54a57.5 57.5 0 00-2.052.036c-.648 0-1.356.012-2.124.036h-2.7c-1.056 0-1.92.168-2.592.504-.648.36-1.164.948-1.548 1.764-.36.84-.66 1.968-.9 3.384h-.828c.072-.552.108-1.296.108-2.232 0-.408-.024-.996-.072-1.764a29.345 29.345 0 00-.18-2.412h8.424c.864 0 1.476-.18 1.836-.54.36-.36.54-1.044.54-2.052v-11.88c0-1.008-.144-1.692-.432-2.052-.288-.36-.792-.54-1.512-.54h-.324c-.744 0-1.224.192-1.44.576-.192.36-.336 1.032-.432 2.016a88.804 88.804 0 01-.396 4.284 42.857 42.857 0 01-.612 4.14c-.24 1.296-.588 2.472-1.044 3.528-.408.912-.924 1.644-1.548 2.196-.6.528-1.32.828-2.16.9l-.216-.576c.792 0 1.464-.264 2.016-.792a5.273 5.273 0 001.224-1.872c.672-1.56 1.128-3.384 1.368-5.472.264-2.112.48-4.224.648-6.336.072-1.008-.144-1.692-.648-2.052-.48-.36-1.212-.54-2.196-.54v-.756c.192.024.492.048.9.072h1.512c.48 0 .996-.012 1.548-.036a47.543 47.543 0 012.016-.036c.936 0 1.74.024 2.412.072.672.048 1.38.072 2.124.072.816 0 1.656-.012 2.52-.036l1.944-.108zm11.341-.54c2.112 0 3.768.624 4.968 1.872 1.2 1.248 1.8 3.288 1.8 6.12h-11.844l-.072-.684h7.38a17.21 17.21 0 00-.216-3.24c-.168-1.008-.432-1.812-.792-2.412-.36-.6-.84-.9-1.44-.9-.84 0-1.56.528-2.16 1.584-.576 1.056-.924 2.808-1.044 5.256l.108.216-.072.9v.972c0 1.656.228 3 .684 4.032.48 1.032 1.08 1.788 1.8 2.268.72.456 1.452.684 2.196.684.72 0 1.5-.18 2.34-.54.864-.36 1.668-1.14 2.412-2.34l.648.216c-.288.912-.744 1.8-1.368 2.664a7.5 7.5 0 01-2.376 2.124c-.96.552-2.112.828-3.456.828-1.632 0-3.072-.348-4.32-1.044-1.248-.696-2.232-1.752-2.952-3.168-.696-1.416-1.044-3.216-1.044-5.4 0-2.232.372-4.092 1.116-5.58.768-1.488 1.812-2.592 3.132-3.312 1.344-.744 2.868-1.116 4.572-1.116zm23.9.54a66.96 66.96 0 00-.216 2.916 86.23 86.23 0 00-.036 2.124c0 .456.012.912.036 1.368.024.432.048.792.072 1.08h-.828c-.312-1.632-.684-2.94-1.116-3.924-.408-1.008-.888-1.728-1.44-2.16a2.724 2.724 0 00-1.836-.684h-.648c-.528 0-.924.156-1.188.468-.24.312-.36.888-.36 1.728v11.952c0 1.176.3 1.968.9 2.376.624.384 1.452.576 2.484.576V52c-.624-.024-1.5-.048-2.628-.072a82.342 82.342 0 00-3.564-.072c-.888 0-1.776.024-2.664.072-.888.024-1.56.048-2.016.072v-.756c.84 0 1.428-.18 1.764-.54.36-.36.54-1.044.54-2.052v-11.88c0-1.008-.18-1.692-.54-2.052-.336-.36-.924-.54-1.764-.54v-.756l2.052.108c.936.024 1.836.036 2.7.036.888 0 1.752-.024 2.592-.072a39.767 39.767 0 012.124-.072h5.58zm19.361-.036v.72c-.456.12-.888.408-1.296.864-.408.432-.804 1.176-1.188 2.232l-5.076 14.256-1.332 2.52-7.848-17.82c-.408-.936-.816-1.5-1.224-1.692-.384-.216-.72-.324-1.008-.324v-.756c.792.072 1.608.132 2.448.18.864.024 1.692.036 2.484.036.984 0 1.884-.024 2.7-.072.816-.048 1.584-.096 2.304-.144v.756c-.48 0-.936.036-1.368.108-.408.048-.696.216-.864.504-.144.264-.072.732.216 1.404l4.536 10.944-.324.216 2.664-7.452c.672-1.944.78-3.36.324-4.248-.456-.912-1.26-1.416-2.412-1.512v-.72c.552.024 1.152.048 1.8.072.648.024 1.212.036 1.692.036s.984-.012 1.512-.036a42.38 42.38 0 001.26-.072zm-7.56 18.072l-1.368 3.852c-.456 1.224-.984 2.076-1.584 2.556-.336.288-.768.504-1.296.648-.528.168-1.14.252-1.836.252a6.114 6.114 0 01-1.8-.288 3.511 3.511 0 01-1.512-.936c-.408-.432-.612-.984-.612-1.656 0-.744.264-1.344.792-1.8.528-.432 1.224-.648 2.088-.648.792 0 1.44.192 1.944.576.504.384.756.948.756 1.692 0 .48-.156.936-.468 1.368-.288.432-.732.756-1.332.972.12.024.264.036.432.036h.396a2.91 2.91 0 001.908-.684c.552-.456 1.008-1.176 1.368-2.16l1.26-3.708.864-.072zm16.894-18.576c.936 0 1.788.108 2.556.324.792.192 1.44.444 1.944.756.624.384 1.104.864 1.44 1.44.36.552.54 1.2.54 1.944 0 .84-.264 1.536-.792 2.088-.528.528-1.212.792-2.052.792-.84 0-1.512-.24-2.016-.72s-.756-1.128-.756-1.944c0-.768.24-1.404.72-1.908.48-.528 1.032-.876 1.656-1.044-.192-.24-.48-.444-.864-.612a3.201 3.201 0 00-1.296-.252c-.744 0-1.404.216-1.98.648-.552.432-1.02 1.032-1.404 1.8-.384.768-.684 1.668-.9 2.7a18.532 18.532 0 00-.288 3.384c0 1.848.228 3.3.684 4.356.48 1.056 1.08 1.8 1.8 2.232.744.432 1.512.648 2.304.648.672 0 1.44-.18 2.304-.54.864-.384 1.668-1.176 2.412-2.376l.612.216c-.264.888-.696 1.776-1.296 2.664-.6.888-1.38 1.62-2.34 2.196-.96.552-2.136.828-3.528.828-1.56 0-2.976-.336-4.248-1.008-1.248-.696-2.256-1.752-3.024-3.168-.744-1.44-1.116-3.288-1.116-5.544 0-2.16.384-3.972 1.152-5.436.792-1.488 1.86-2.604 3.204-3.348 1.344-.744 2.868-1.116 4.572-1.116zm27.687.54a66.96 66.96 0 00-.216 2.916 86.23 86.23 0 00-.036 2.124c0 .456.012.912.036 1.368.024.432.048.792.072 1.08h-.828c-.288-1.728-.684-3.084-1.188-4.068-.504-.984-1.068-1.68-1.692-2.088a3.39 3.39 0 00-1.944-.612h-1.188v14.148c0 1.176.3 1.968.9 2.376.624.384 1.452.576 2.484.576V52c-.6-.024-1.44-.048-2.52-.072a75.61 75.61 0 00-3.42-.072c-1.2 0-2.352.024-3.456.072-1.08.024-1.932.048-2.556.072v-.756c1.08 0 1.908-.156 2.484-.468.6-.336.9-1.092.9-2.268V34.144h-1.332c-.648 0-1.272.204-1.872.612-.6.408-1.14 1.104-1.62 2.088-.456.984-.84 2.34-1.152 4.068h-.828c.048-.288.072-.648.072-1.08.024-.432.036-.888.036-1.368 0-.504-.024-1.212-.072-2.124a42.192 42.192 0 00-.18-2.916h3.816c.672 0 1.524.024 2.556.072a137.92 137.92 0 006.336 0 59.317 59.317 0 012.592-.072h3.816zm6.553 18.828c-1.608 0-2.772-.42-3.492-1.26-.72-.84-1.08-1.86-1.08-3.06 0-1.032.228-1.872.684-2.52a5.6 5.6 0 011.836-1.584 12.01 12.01 0 012.34-1.044c.84-.288 1.632-.564 2.376-.828.768-.288 1.38-.612 1.836-.972.48-.36.72-.816.72-1.368v-2.808c0-.624-.108-1.176-.324-1.656A2.238 2.238 0 00353.84 34c-.408-.264-.948-.396-1.62-.396-.48 0-.96.072-1.44.216-.48.12-.876.336-1.188.648.672.24 1.188.612 1.548 1.116.384.48.576 1.032.576 1.656 0 .816-.288 1.464-.864 1.944-.552.48-1.212.72-1.98.72-.864 0-1.524-.264-1.98-.792-.432-.552-.648-1.212-.648-1.98 0-.696.168-1.272.504-1.728.36-.456.852-.888 1.476-1.296.672-.384 1.476-.684 2.412-.9.96-.216 1.992-.324 3.096-.324s2.1.12 2.988.36c.888.216 1.632.624 2.232 1.224.552.552.912 1.236 1.08 2.052.168.792.252 1.8.252 3.024v9.792c0 .576.06.984.18 1.224s.324.36.612.36c.24 0 .468-.06.684-.18.216-.12.42-.264.612-.432l.36.612a5.547 5.547 0 01-1.764 1.008c-.648.216-1.38.324-2.196.324-1.44 0-2.4-.288-2.88-.864a3.49 3.49 0 01-.72-2.052c-.6.984-1.344 1.716-2.232 2.196-.864.48-1.884.72-3.06.72zm2.772-2.304c.456 0 .876-.108 1.26-.324.408-.216.804-.6 1.188-1.152v-7.38c-.288.48-.696.888-1.224 1.224-.504.312-1.032.66-1.584 1.044-.528.36-.972.828-1.332 1.404-.36.576-.54 1.344-.54 2.304 0 1.032.216 1.776.648 2.232.432.432.96.648 1.584.648zm32.312-16.524v.756c-.84 0-1.44.18-1.8.54-.336.36-.504 1.044-.504 2.052v11.88c0 1.008.204 1.692.612 2.052.408.36 1.176.54 2.304.54-.096.84-.168 1.644-.216 2.412a64.521 64.521 0 00-.036 1.8c0 .936.036 1.68.108 2.232h-.828c-.24-1.416-.564-2.544-.972-3.384-.408-.84-.984-1.452-1.728-1.836-.744-.36-1.74-.54-2.988-.54-.768 0-1.44.012-2.016.036-.576.024-1.356.036-2.34.036-1.2 0-2.232-.024-3.096-.072a48.166 48.166 0 00-2.736-.072c-.912 0-1.848.024-2.808.072-.96.024-1.68.048-2.16.072v-.756c.84 0 1.428-.18 1.764-.54.36-.36.54-1.044.54-2.052v-11.88c0-1.008-.18-1.692-.54-2.052-.336-.36-.924-.54-1.764-.54v-.756l2.052.108c.936.024 1.836.036 2.7.036.936 0 1.836-.012 2.7-.036l1.98-.108v.756c-.696 0-1.2.18-1.512.54-.288.36-.432 1.044-.432 2.052v11.88c0 1.008.144 1.692.432 2.052.312.36.816.54 1.512.54h2.34c.72 0 1.224-.18 1.512-.54.288-.36.432-1.044.432-2.052v-11.88c0-1.008-.144-1.692-.432-2.052-.288-.36-.792-.54-1.512-.54v-.756l1.908.108c.84.024 1.692.036 2.556.036.936 0 1.872-.012 2.808-.036l2.16-.108zm23.957 0v.756c-.84 0-1.44.18-1.8.54-.336.36-.504 1.044-.504 2.052v11.88c0 1.008.168 1.692.504 2.052.36.36.96.54 1.8.54V52a85.352 85.352 0 00-2.088-.072 50.708 50.708 0 00-5.364 0c-.864.024-1.524.048-1.98.072v-.756c.72 0 1.224-.18 1.512-.54.288-.36.432-1.044.432-2.052v-11.88c0-1.008-.144-1.692-.432-2.052-.288-.36-.792-.54-1.512-.54v-.756l1.908.108c.84.024 1.692.036 2.556.036.936 0 1.872-.012 2.808-.036l2.16-.108zm-12.42 0v.756c-.696 0-1.2.18-1.512.54-.288.36-.432 1.044-.432 2.052v11.88c0 1.008.144 1.692.432 2.052.312.36.816.54 1.512.54V52a76.963 76.963 0 00-1.908-.072 43.572 43.572 0 00-2.556-.072c-.912 0-1.848.024-2.808.072-.96.024-1.68.048-2.16.072v-.756c.84 0 1.428-.18 1.764-.54.36-.36.54-1.044.54-2.052v-11.88c0-1.008-.18-1.692-.54-2.052-.336-.36-.924-.54-1.764-.54v-.756l2.052.108c.936.024 1.836.036 2.7.036.936 0 1.836-.012 2.7-.036l1.98-.108zm5.364 2.196l.612.36-8.568 14.508-.612-.36 8.568-14.508zm27.946-2.736c1.656 0 3.12.324 4.392.972 1.272.648 2.268 1.692 2.988 3.132.72 1.44 1.08 3.348 1.08 5.724 0 2.376-.36 4.284-1.08 5.724-.72 1.416-1.716 2.448-2.988 3.096-1.272.648-2.736.972-4.392.972-1.632 0-3.096-.324-4.392-.972-1.272-.648-2.268-1.68-2.988-3.096-.72-1.44-1.08-3.348-1.08-5.724 0-2.376.36-4.284 1.08-5.724.72-1.44 1.716-2.484 2.988-3.132 1.296-.648 2.76-.972 4.392-.972zm-9.72.54v.756c-.696 0-1.2.18-1.512.54-.288.36-.432 1.044-.432 2.052v11.88c0 1.008.156 1.692.468 2.052.336.36.876.54 1.62.54V52a76.62 76.62 0 00-1.98-.072 47.373 47.373 0 00-2.628-.072c-.912 0-1.848.024-2.808.072-.96.024-1.68.048-2.16.072v-.756c.84 0 1.428-.18 1.764-.54.36-.36.54-1.044.54-2.052v-11.88c0-1.008-.18-1.692-.54-2.052-.336-.36-.924-.54-1.764-.54v-.756l2.052.108c.936.024 1.836.036 2.7.036.936 0 1.836-.012 2.7-.036l1.98-.108zm3.528 8.964v.72h-7.164v-.72h7.164zm6.192-8.784c-.576 0-1.092.288-1.548.864-.456.552-.816 1.488-1.08 2.808-.264 1.32-.396 3.132-.396 5.436 0 2.28.132 4.08.396 5.4.264 1.32.624 2.268 1.08 2.844.456.552.972.828 1.548.828.576 0 1.092-.276 1.548-.828.456-.576.816-1.524 1.08-2.844.264-1.32.396-3.12.396-5.4 0-2.304-.132-4.116-.396-5.436-.264-1.32-.624-2.256-1.08-2.808-.456-.576-.972-.864-1.548-.864z" fill="#fff"/></svg>